<?xml version="1.0" encoding="UTF-8"?>
<svg xmlns="http://www.w3.org/2000/svg" xmlns:xlink="http://www.w3.org/1999/xlink" width="115px" height="100px" viewBox="0 0 115 100" version="1.1">
<g id="surface1">
<path style=" stroke:none;fill-rule:nonzero;fill:rgb(21.176471%,6.666667%,93.333334%);fill-opacity:1;" d="M 51.511719 14.574219 C 50.3125 15.148438 48.664062 16.476562 47.84375 17.523438 C 46.917969 18.675781 45.746094 19.5 44.796875 19.699219 C 39.257812 20.800781 36.835938 29.699219 40.703125 34.800781 L 41.878906 36.375 L 40.054688 37.550781 C 36.660156 39.75 35.238281 42.875 35.015625 48.550781 L 34.816406 53.5 L 39.929688 53.5 L 39.929688 59.523438 L 56.027344 59.375 L 72.125 59.25 L 72.273438 56.398438 L 72.425781 53.550781 L 74.769531 53.398438 L 77.117188 53.25 L 77.015625 49.050781 C 76.890625 43.074219 73.398438 36.5 70.328125 36.5 C 70.078125 36.5 70.628906 35.476562 71.5 34.199219 C 75.070312 29.125 72.398438 20.773438 66.859375 19.675781 C 66.058594 19.5 64.8125 18.574219 63.9375 17.5 C 60.894531 13.699219 55.703125 12.476562 51.511719 14.574219 Z M 59.921875 16.5 C 65.984375 19.625 66.632812 30.898438 60.96875 34.949219 C 58.847656 36.449219 58.949219 36.773438 62.117188 38.25 C 67.507812 40.824219 69.953125 45.125 70.277344 52.625 L 70.503906 57.5 L 41.277344 57.5 L 41.578125 52.875 C 42.101562 45.125 44.125 41.375 49.3125 38.601562 C 52.90625 36.675781 52.957031 36.550781 50.710938 34.824219 C 41.328125 27.648438 49.589844 11.226562 59.921875 16.5 Z M 45.070312 24.675781 C 44.746094 29 45.320312 31.148438 47.691406 34.273438 L 49.390625 36.476562 L 47.992188 37.199219 C 44 39.273438 40.554688 44.476562 40.082031 49.226562 C 39.804688 51.898438 39.730469 52 38.308594 52 L 36.835938 52 L 37.011719 47.800781 C 37.210938 42.75 38.707031 40.101562 42.425781 38.148438 C 45.171875 36.699219 45.320312 36.375 43.648438 35.273438 C 42.101562 34.273438 40.453125 30.875 40.453125 28.75 C 40.453125 26.101562 43.574219 21 45.195312 21 C 45.269531 21 45.222656 22.648438 45.070312 24.675781 Z M 69.753906 23.976562 C 72.023438 27.351562 71.652344 31.800781 68.832031 34.625 C 67.007812 36.449219 67.007812 36.800781 69.003906 37.800781 C 73.023438 39.824219 74.917969 43.023438 75.269531 48.398438 L 75.492188 52.074219 L 73.820312 51.898438 C 72.222656 51.75 72.148438 51.648438 71.976562 49.5 C 71.625 44.925781 67.855469 39.050781 64.136719 37.273438 L 62.417969 36.476562 L 64.136719 34.226562 C 66.382812 31.25 67.082031 28.601562 66.683594 24.300781 L 66.359375 20.875 L 67.507812 21.601562 C 68.132812 22.023438 69.128906 23.074219 69.753906 23.976562 Z M 69.753906 23.976562 "/>
<path style=" stroke:none;fill-rule:nonzero;fill:rgb(21.176471%,6.666667%,93.333334%);fill-opacity:1;" d="M 55.054688 39.5 C 54.90625 40.050781 54.53125 40.5 54.179688 40.5 C 53.109375 40.5 51.410156 42.5 51.410156 43.773438 C 51.410156 45.5 52.957031 46.648438 56.027344 47.25 C 57.875 47.625 58.699219 48.023438 58.796875 48.648438 C 59.222656 50.824219 56.253906 51.726562 53.433594 50.273438 C 52.160156 49.601562 51.933594 49.625 51.359375 50.300781 C 50.613281 51.199219 51.285156 51.824219 53.480469 52.324219 C 54.230469 52.476562 54.929688 53.023438 55.054688 53.550781 C 55.355469 54.675781 56.902344 54.851562 56.902344 53.75 C 56.902344 53.351562 57.675781 52.675781 58.648438 52.273438 C 60.792969 51.375 61.644531 49.75 60.945312 47.898438 C 60.445312 46.574219 59.472656 46.125 55.253906 45.25 C 51.660156 44.523438 53.40625 41.75 57.175781 42.199219 C 58.597656 42.351562 59.894531 42.351562 60.070312 42.175781 C 60.59375 41.648438 59.371094 40.5 58.296875 40.5 C 57.726562 40.5 57.199219 40.074219 57.050781 39.5 C 56.902344 38.949219 56.453125 38.5 56.050781 38.5 C 55.652344 38.5 55.203125 38.949219 55.054688 39.5 Z M 55.054688 39.5 "/>
<path style=" stroke:none;fill-rule:nonzero;fill:rgb(21.176471%,6.666667%,93.333334%);fill-opacity:1;" d="M 73.199219 61.375 C 72.523438 62.550781 73.273438 74.75 74.046875 74.898438 C 74.769531 75.050781 74.871094 74.273438 74.871094 68.023438 C 74.871094 61.324219 74.394531 59.375 73.199219 61.375 Z M 73.199219 61.375 "/>
<path style=" stroke:none;fill-rule:nonzero;fill:rgb(21.176471%,6.666667%,93.333334%);fill-opacity:1;" d="M 83.753906 61.273438 C 83.605469 61.425781 83.605469 62.550781 83.730469 63.773438 C 83.980469 65.875 83.378906 66.773438 82.605469 65.5 C 82.03125 64.574219 79.5625 64.976562 78.4375 66.175781 C 74.917969 69.925781 77.941406 76.324219 82.457031 74.625 C 83.230469 74.324219 83.855469 74.273438 83.855469 74.550781 C 83.855469 74.800781 84.203125 75 84.601562 75 C 85.226562 75 85.351562 73.898438 85.351562 68 C 85.351562 61.226562 85.050781 59.976562 83.753906 61.273438 Z M 83.082031 67.601562 C 85.25 70.726562 82.207031 75.273438 79.636719 72.726562 C 79.210938 72.273438 78.863281 71.074219 78.863281 70 C 78.863281 66.773438 81.457031 65.300781 83.082031 67.601562 Z M 83.082031 67.601562 "/>
<path style=" stroke:none;fill-rule:nonzero;fill:rgb(21.176471%,6.666667%,93.333334%);fill-opacity:1;" d="M 68.582031 62.226562 C 68.230469 63.125 68.730469 64 69.605469 64 C 70.527344 64 70.925781 62.75 70.226562 62.050781 C 69.480469 61.300781 68.90625 61.351562 68.582031 62.226562 Z M 68.582031 62.226562 "/>
<path style=" stroke:none;fill-rule:nonzero;fill:rgb(21.176471%,6.666667%,93.333334%);fill-opacity:1;" d="M 10.632812 62.800781 C 3.742188 66.226562 8.984375 77.476562 16.171875 74.699219 C 17.792969 74.074219 17.070312 72.925781 15.097656 73 C 12.027344 73.148438 11.53125 73.050781 10.480469 72 C 7.660156 69.175781 9.984375 63.851562 13.949219 64.050781 C 16.871094 64.226562 18.019531 63.648438 16.695312 62.675781 C 15.472656 61.773438 12.601562 61.851562 10.632812 62.800781 Z M 10.632812 62.800781 "/>
<path style=" stroke:none;fill-rule:nonzero;fill:rgb(21.176471%,6.666667%,93.333334%);fill-opacity:1;" d="M 46.917969 68.5 L 46.917969 75 L 50.1875 75 C 55.105469 75 57.648438 71.75 54.878906 68.976562 C 53.980469 68.074219 53.957031 67.875 54.628906 67.199219 C 57.125 64.699219 54.554688 62 49.6875 62 L 46.917969 62 Z M 53.480469 64.574219 C 54.480469 66.175781 52.933594 67.601562 50.488281 67.398438 C 48.714844 67.25 48.265625 66.175781 48.863281 63.550781 C 48.988281 63.074219 53.109375 64 53.480469 64.574219 Z M 53.109375 69.300781 C 54.480469 69.824219 54.132812 72.449219 52.632812 73 C 50.113281 73.976562 48.914062 73.648438 48.914062 72.050781 C 48.914062 71.25 48.789062 70.226562 48.617188 69.800781 C 48.292969 68.949219 51.359375 68.625 53.109375 69.300781 Z M 53.109375 69.300781 "/>
<path style=" stroke:none;fill-rule:nonzero;fill:rgb(21.176471%,6.666667%,93.333334%);fill-opacity:1;" d="M 18.96875 70.023438 C 18.96875 74.574219 19.066406 75.050781 19.839844 74.898438 C 20.5625 74.75 20.6875 74.25 20.5625 72.050781 C 20.414062 69 21.289062 67.175781 23.058594 66.898438 C 24.457031 66.699219 24.957031 65 23.609375 65 C 23.109375 65 22.1875 65.351562 21.5625 65.773438 C 20.5625 66.476562 20.464844 66.476562 20.464844 65.773438 C 20.464844 65.351562 20.140625 65 19.714844 65 C 19.09375 65 18.96875 65.898438 18.96875 70.023438 Z M 18.96875 70.023438 "/>
<path style=" stroke:none;fill-rule:nonzero;fill:rgb(21.176471%,6.666667%,93.333334%);fill-opacity:1;" d="M 25.953125 70 C 25.953125 74.625 26.03125 75 26.929688 75 C 27.800781 75 27.925781 74.601562 28.050781 71.175781 C 28.324219 64.351562 31.570312 64.398438 31.84375 71.199219 C 31.96875 74.523438 32.09375 75.050781 32.84375 74.898438 C 33.542969 74.75 33.667969 74.25 33.515625 71.851562 C 33.34375 68.675781 34.289062 66.5 35.835938 66.5 C 37.460938 66.5 37.933594 67.574219 37.933594 71.375 C 37.933594 74.625 38.035156 75.050781 38.808594 74.898438 C 39.980469 74.675781 39.78125 67.226562 38.558594 65.875 C 37.632812 64.824219 35.488281 64.726562 34.191406 65.699219 C 33.367188 66.300781 33.066406 66.273438 32.042969 65.601562 C 31.046875 64.949219 30.570312 64.925781 29.273438 65.425781 C 28.25 65.800781 27.652344 65.824219 27.527344 65.5 C 26.753906 63.148438 25.953125 65.398438 25.953125 70 Z M 25.953125 70 "/>
<path style=" stroke:none;fill-rule:nonzero;fill:rgb(21.176471%,6.666667%,93.333334%);fill-opacity:1;" d="M 57.898438 68.976562 C 57.898438 74.226562 60.171875 76.550781 63.363281 74.523438 C 63.839844 74.226562 64.339844 74.25 64.761719 74.601562 C 65.734375 75.425781 65.8125 75.125 65.933594 70 C 66.011719 65.949219 65.910156 65.226562 65.210938 65.101562 C 64.511719 64.949219 64.386719 65.425781 64.386719 68.101562 C 64.386719 71.550781 63.488281 73.5 61.890625 73.5 C 60.019531 73.5 59.320312 72.101562 59.496094 68.574219 C 59.621094 65.773438 59.523438 65.25 58.773438 65.101562 C 58 64.949219 57.898438 65.375 57.898438 68.976562 Z M 57.898438 68.976562 "/>
<path style=" stroke:none;fill-rule:nonzero;fill:rgb(21.176471%,6.666667%,93.333334%);fill-opacity:1;" d="M 68.855469 65.25 C 68.507812 69.398438 68.90625 74.773438 69.578125 74.898438 C 70.277344 75.050781 70.378906 74.375 70.378906 70.023438 C 70.378906 65.898438 70.253906 65 69.628906 65 C 69.230469 65 68.878906 65.101562 68.855469 65.25 Z M 68.855469 65.25 "/>
<path style=" stroke:none;fill-rule:nonzero;fill:rgb(21.176471%,6.666667%,93.333334%);fill-opacity:1;" d="M 89.171875 66.324219 C 87.847656 67.648438 87.375 70.675781 88.148438 72.726562 C 88.84375 74.550781 92.8125 75.574219 94.886719 74.476562 C 96.433594 73.648438 95.460938 72.898438 93.3125 73.25 C 91.789062 73.523438 91.214844 73.375 90.394531 72.550781 C 88.722656 70.875 89.121094 70.5 92.589844 70.5 L 95.832031 70.5 L 95.832031 68.976562 C 95.832031 65.449219 91.664062 63.800781 89.171875 66.324219 Z M 93.113281 66.875 C 94.859375 68.074219 94.3125 69 91.816406 69 C 89.121094 69 88.921875 68.800781 90.167969 67.425781 C 91.042969 66.476562 92.214844 66.25 93.113281 66.875 Z M 93.113281 66.875 "/>
<path style=" stroke:none;fill-rule:nonzero;fill:rgb(21.176471%,6.666667%,93.333334%);fill-opacity:1;" d="M 97.828125 70 C 97.828125 74.675781 97.90625 75 98.828125 75 C 99.726562 75 99.828125 74.675781 99.828125 71.550781 C 99.828125 67.898438 100.199219 67.226562 102.320312 66.925781 C 103.996094 66.699219 104.34375 65 102.722656 65 C 102.074219 65 101.050781 65.351562 100.425781 65.773438 C 99.425781 66.476562 99.328125 66.476562 99.328125 65.773438 C 99.328125 65.351562 99.003906 65 98.578125 65 C 97.953125 65 97.828125 65.898438 97.828125 70 Z M 97.828125 70 "/>
</g>
</svg>
