<?xml version="1.0" standalone="no"?>
<!DOCTYPE svg PUBLIC "-//W3C//DTD SVG 20010904//EN"
 "http://www.w3.org/TR/2001/REC-SVG-20010904/DTD/svg10.dtd">
<svg version="1.0" xmlns="http://www.w3.org/2000/svg"
 width="850.000000pt" height="710.000000pt" viewBox="0 0 850.000000 710.000000"
 preserveAspectRatio="xMidYMid meet">

<g transform="translate(0.000000,710.000000) scale(0.100000,-0.100000)"
fill="#000000" stroke="none">
<path d="M5713 2593 c-22 -4 -23 -9 -23 -104 l0 -99 -43 6 c-88 12 -173 -33
-208 -111 -40 -88 -17 -234 46 -283 51 -41 98 -40 198 3 13 5 17 2 17 -14 0
-21 15 -26 44 -15 14 5 16 43 16 315 0 241 -3 309 -12 308 -7 -1 -23 -4 -35
-6z m-45 -259 c21 -6 22 -10 22 -134 0 -126 0 -128 -26 -145 -63 -41 -127 -27
-160 37 -20 38 -22 134 -5 177 24 56 97 84 169 65z"/>
<path d="M5260 2285 l0 -305 30 0 30 0 0 305 0 305 -30 0 -30 0 0 -305z"/>
<path d="M5082 2538 c-7 -7 -12 -21 -12 -33 0 -48 49 -60 76 -20 16 24 16 27
-1 45 -20 23 -45 26 -63 8z"/>
<path d="M2740 2531 c-127 -39 -186 -139 -178 -300 10 -204 131 -289 355 -250
63 11 64 12 58 38 -9 34 -6 33 -56 22 -62 -15 -134 -13 -172 3 -138 57 -153
314 -24 410 29 22 106 28 202 16 37 -5 40 -3 43 22 3 24 -1 27 -48 37 -57 12
-142 13 -180 2z"/>
<path d="M4200 2254 l0 -276 123 4 c137 3 168 14 204 67 34 50 33 138 -2 180
-14 16 -35 33 -46 36 -19 6 -19 7 2 37 27 38 36 116 19 159 -21 50 -75 69
-197 69 l-103 0 0 -276z m219 198 c28 -21 31 -84 7 -130 -16 -31 -18 -32 -86
-32 l-70 0 0 90 0 90 64 0 c46 0 70 -5 85 -18z m39 -245 c43 -39 33 -126 -19
-152 -17 -9 -56 -15 -99 -15 l-70 0 0 96 0 96 84 -3 c63 -3 89 -8 104 -22z"/>
<path d="M3155 2369 l-35 -31 0 26 c0 22 -4 26 -30 26 l-30 0 0 -200 0 -200
30 0 30 0 0 135 0 135 36 40 c26 28 44 40 64 40 21 0 29 6 32 24 9 47 -46 49
-97 5z"/>
<path d="M3481 2389 c-13 -5 -36 -18 -51 -29 -29 -21 -40 -18 -40 12 0 15 -6
19 -27 16 l-28 -3 -3 -202 -2 -203 35 0 35 0 0 153 0 154 49 26 c55 31 92 34
115 11 13 -13 16 -44 16 -180 l0 -164 30 0 30 0 1 128 c1 70 1 131 0 136 -7
37 70 96 125 96 51 0 54 -10 54 -192 l0 -168 36 0 36 0 -4 173 c-3 115 -9 181
-17 199 -28 55 -118 62 -191 14 l-39 -26 -30 30 c-31 32 -80 39 -130 19z"/>
<path d="M5976 2390 c-35 -11 -82 -53 -104 -95 -23 -42 -23 -188 1 -232 36
-67 111 -99 208 -89 76 7 91 14 87 40 -3 20 -8 21 -78 18 -89 -3 -132 17 -156
73 -27 66 -29 65 121 65 l135 0 0 53 c0 129 -94 202 -214 167z m118 -81 c14
-17 26 -37 26 -44 0 -7 3 -20 6 -29 5 -14 -7 -16 -100 -16 -58 0 -106 2 -106
5 0 21 32 75 55 93 41 33 87 29 119 -9z"/>
<path d="M6382 2372 c-33 -31 -42 -31 -42 0 0 15 -6 19 -27 16 l-28 -3 -3
-197 -2 -198 35 0 35 0 0 138 0 137 30 37 c22 26 40 38 63 40 27 2 32 7 32 28
0 39 -52 40 -93 2z"/>
<path d="M4650 2226 c0 -93 5 -177 11 -195 22 -62 97 -78 179 -36 27 14 52 25
55 25 3 0 5 -11 5 -25 0 -25 13 -31 44 -19 14 5 16 33 16 210 l0 204 -30 0
-30 0 -1 -127 c-1 -71 0 -138 1 -150 2 -28 -63 -73 -117 -80 -63 -8 -67 4 -71
194 l-4 163 -29 0 -29 0 0 -164z"/>
<path d="M5080 2185 l0 -205 30 0 30 0 0 205 0 205 -30 0 -30 0 0 -205z"/>
<path d="M3275 1619 c-11 -17 1 -21 15 -4 8 9 8 15 2 15 -6 0 -14 -5 -17 -11z"/>
<path d="M4515 1555 c0 -41 3 -75 8 -75 4 0 7 34 7 75 0 41 -3 75 -7 75 -5 0
-8 -34 -8 -75z"/>
<path d="M5326 1605 c-10 -15 -12 -25 -5 -25 6 0 9 -17 8 -45 -2 -24 0 -47 4
-51 4 -4 7 16 7 44 0 40 4 52 18 55 16 4 16 5 0 6 -25 1 -22 20 5 31 22 9 22
9 1 9 -13 1 -29 -10 -38 -24z"/>
<path d="M3054 1612 c-38 -25 -40 -103 -4 -122 23 -12 70 -13 70 -2 0 5 -14 9
-31 9 -35 0 -49 15 -49 55 0 34 34 60 68 51 17 -4 23 -2 18 6 -8 12 -55 15
-72 3z"/>
<path d="M3650 1548 c0 -68 8 -90 12 -35 2 21 8 27 24 27 25 0 54 24 54 44 0
21 -23 36 -57 36 l-33 0 0 -72z m54 56 c23 -9 19 -41 -6 -47 -27 -7 -38 -1
-38 22 0 29 14 37 44 25z"/>
<path d="M5019 1603 c-2 -10 -1 -43 2 -73 4 -34 6 -43 7 -22 2 24 7 32 21 32
36 0 51 12 51 40 0 29 -15 40 -55 40 -13 0 -24 -7 -26 -17z m57 -8 c19 -15 19
-15 0 -30 -11 -8 -24 -15 -28 -15 -5 0 -11 7 -14 15 -7 17 2 45 14 45 4 0 17
-7 28 -15z"/>
<path d="M3150 1533 c0 -29 5 -53 10 -53 6 0 10 18 10 41 0 32 4 42 20 46 30
8 24 22 -10 21 -29 -1 -30 -2 -30 -55z"/>
<path d="M3242 1578 c-7 -7 -12 -26 -12 -43 0 -17 5 -36 12 -43 15 -15 68 -16
68 -1 0 6 -8 8 -19 4 -11 -3 -26 1 -37 12 -17 17 -16 18 25 21 38 3 41 5 35
25 -11 36 -48 49 -72 25z m42 -4 c28 -11 18 -34 -14 -34 -28 0 -30 2 -20 20
12 22 12 22 34 14z"/>
<path d="M3352 1578 c-7 -7 -12 -26 -12 -43 0 -17 5 -36 12 -43 15 -15 55 -16
64 -1 4 7 0 9 -14 5 -13 -4 -26 0 -38 11 -17 17 -16 18 24 21 45 3 54 19 26
46 -18 19 -45 21 -62 4z m42 -4 c25 -9 19 -34 -7 -34 -30 0 -40 10 -26 27 13
15 12 15 33 7z"/>
<path d="M3473 1583 c31 -5 33 3 -19 -78 l-16 -25 43 2 c37 1 39 2 11 5 l-32
4 30 44 c16 24 30 46 30 49 0 3 -17 5 -37 5 -32 -2 -33 -3 -10 -6z"/>
<path d="M3776 1574 c-35 -34 -9 -94 40 -94 13 0 24 5 24 11 0 5 -5 7 -10 4
-16 -10 -50 5 -50 21 0 9 11 14 35 14 27 0 35 4 35 18 0 39 -45 55 -74 26z
m52 -17 c3 -12 -4 -17 -22 -17 -27 0 -37 24 -13 33 19 8 32 2 35 -16z"/>
<path d="M3879 1580 c-6 -21 -4 -69 2 -85 6 -16 8 -12 9 15 0 40 7 52 35 68
18 10 16 11 -12 9 -18 -1 -34 -4 -34 -7z"/>
<path d="M3961 1581 c-19 -12 -7 -39 25 -51 32 -13 26 -36 -10 -33 -14 1 -26
-2 -26 -8 0 -13 54 -11 68 3 14 14 -2 48 -22 48 -8 0 -19 6 -25 14 -14 17 9
29 36 19 11 -4 14 -3 9 5 -8 14 -35 15 -55 3z"/>
<path d="M4056 1574 c-21 -21 -20 -57 2 -77 23 -21 46 -22 66 -1 32 32 10 94
-34 94 -10 0 -26 -7 -34 -16z m48 0 c22 -8 22 -70 0 -78 -35 -13 -60 44 -32
72 14 14 12 14 32 6z"/>
<path d="M4166 1580 c-1 -3 1 -27 5 -55 l6 -50 1 41 c3 79 62 86 62 7 0 -24 4
-42 9 -39 9 6 6 80 -4 97 -6 9 -75 8 -79 -1z"/>
<path d="M4289 1580 c-6 -29 -4 -100 3 -100 4 0 8 17 8 39 0 42 18 65 44 55
11 -4 16 -19 17 -53 0 -35 2 -41 9 -25 4 11 5 36 1 55 -6 31 -10 34 -44 34
-20 0 -37 -2 -38 -5z"/>
<path d="M4416 1581 c-4 -6 5 -9 20 -8 15 1 29 -4 31 -10 3 -8 -5 -13 -20 -13
-29 0 -50 -22 -45 -47 2 -13 13 -18 41 -18 l38 -1 -3 51 c-3 46 -5 50 -30 53
-14 2 -29 -1 -32 -7z m54 -55 c0 -7 -7 -19 -15 -26 -19 -16 -41 1 -32 24 8 20
47 21 47 2z"/>
<path d="M4569 1573 c0 -10 -2 -35 -4 -55 -1 -21 1 -38 6 -38 5 0 9 25 9 55 0
30 -2 55 -5 55 -3 0 -5 -8 -6 -17z"/>
<path d="M4617 1583 c-17 -16 -5 -42 23 -52 17 -5 30 -14 30 -19 0 -13 -27
-23 -45 -16 -8 4 -15 1 -15 -6 0 -7 13 -10 33 -8 42 4 52 43 14 57 -14 6 -28
14 -31 19 -8 13 20 23 41 15 11 -4 14 -3 9 5 -8 13 -48 16 -59 5z"/>
<path d="M4716 1574 c-21 -21 -20 -57 2 -77 21 -19 58 -22 68 -6 4 8 -1 9 -15
4 -22 -7 -51 9 -51 26 0 5 16 9 35 9 27 0 35 4 35 18 0 39 -45 55 -74 26z m52
-17 c3 -12 -4 -17 -22 -17 -27 0 -37 24 -13 33 19 8 32 2 35 -16z"/>
<path d="M4833 1583 c33 -5 33 -9 2 -55 -14 -20 -25 -39 -25 -42 0 -4 17 -5
38 -5 30 2 32 3 9 6 l-27 4 25 43 c14 24 25 46 25 49 0 4 -17 6 -37 6 -31 -2
-33 -3 -10 -6z"/>
<path d="M5142 1578 c-7 -7 -12 -26 -12 -43 0 -17 5 -36 12 -43 15 -15 68 -16
68 -1 0 6 -7 8 -16 5 -17 -7 -54 10 -54 24 0 6 16 10 35 10 27 0 35 4 35 18 0
22 -19 42 -40 42 -9 0 -21 -5 -28 -12z m46 -10 c19 -19 14 -28 -18 -28 -16 0
-30 4 -30 8 0 9 21 32 30 32 3 0 11 -5 18 -12z"/>
<path d="M5240 1533 c0 -29 5 -53 10 -53 6 0 10 18 10 39 0 30 6 44 22 55 21
15 21 15 -10 13 -32 -2 -32 -3 -32 -54z"/>
<path d="M5396 1574 c-43 -42 11 -119 60 -86 22 14 26 52 10 77 -19 29 -47 32
-70 9z m52 -6 c28 -28 3 -85 -32 -72 -19 7 -22 70 -3 77 19 8 22 8 35 -5z"/>
<path d="M5512 1535 c1 -57 1 -58 7 -17 4 33 12 47 31 58 18 9 20 13 8 14 -9
0 -20 -5 -24 -11 -4 -8 -9 -7 -15 2 -5 9 -8 -9 -7 -46z"/>
<path d="M5589 1570 c0 -8 -2 -26 -4 -40 -1 -14 1 -32 6 -40 6 -10 8 -2 9 26
0 42 20 71 40 59 5 -3 10 -26 10 -51 0 -24 5 -44 10 -44 6 0 10 20 10 44 0 31
5 46 16 50 26 10 34 -2 34 -50 0 -24 5 -44 10 -44 15 0 12 87 -2 97 -7 4 -41
8 -75 8 -49 0 -63 -3 -64 -15z"/>
<path d="M5776 1574 c-35 -34 -9 -94 40 -94 13 0 24 5 24 11 0 5 -5 7 -10 4
-16 -10 -50 5 -50 21 0 9 11 14 35 14 27 0 35 4 35 18 0 39 -45 55 -74 26z
m52 -17 c3 -12 -4 -17 -22 -17 -27 0 -37 24 -13 33 19 8 32 2 35 -16z"/>
<path d="M5893 1583 c15 -2 27 -7 27 -9 0 -3 -11 -22 -25 -42 -14 -20 -25 -40
-25 -44 0 -5 17 -7 38 -7 30 2 32 3 10 6 -16 2 -28 7 -28 9 0 3 11 22 25 42
14 20 25 40 25 44 0 5 -17 7 -37 7 -31 -2 -33 -3 -10 -6z"/>
<path d="M5970 1496 c0 -9 5 -16 10 -16 6 0 10 4 10 9 0 6 -4 13 -10 16 -5 3
-10 -1 -10 -9z"/>
<path d="M3540 1490 c0 -5 5 -10 10 -10 6 0 10 5 10 10 0 6 -4 10 -10 10 -5 0
-10 -4 -10 -10z"/>
<path d="M4910 1490 c0 -5 5 -10 10 -10 6 0 10 5 10 10 0 6 -4 10 -10 10 -5 0
-10 -4 -10 -10z"/>
</g>
</svg>
