<?xml version="1.0" encoding="UTF-8"?>
<svg xmlns="http://www.w3.org/2000/svg" xmlns:xlink="http://www.w3.org/1999/xlink" width="71px" height="60px" viewBox="0 0 70 60" version="1.1">
<g id="surface1">
<path style=" stroke:none;fill-rule:nonzero;fill:rgb(21.176471%,6.666667%,93.333334%);fill-opacity:1;" d="M 31.542969 8.742188 C 30.84375 9.085938 29.886719 9.886719 29.421875 10.519531 C 28.875 11.207031 28.207031 11.703125 27.660156 11.816406 C 24.445312 12.476562 23.050781 17.828125 25.292969 20.886719 L 25.964844 21.824219 L 24.910156 22.527344 C 22.957031 23.851562 22.121094 25.726562 21.996094 29.132812 L 21.886719 32.09375 L 24.839844 32.09375 L 24.839844 35.707031 L 34.152344 35.625 L 43.464844 35.554688 L 43.542969 33.832031 L 43.628906 32.136719 L 44.980469 32.039062 L 46.347656 31.945312 L 46.277344 29.433594 C 46.210938 25.851562 44.1875 21.894531 42.425781 21.894531 C 42.273438 21.894531 42.589844 21.285156 43.09375 20.515625 C 45.160156 17.480469 43.613281 12.464844 40.414062 11.800781 C 39.949219 11.703125 39.222656 11.140625 38.71875 10.503906 C 36.96875 8.21875 33.960938 7.484375 31.542969 8.742188 Z M 36.394531 9.898438 C 39.910156 11.773438 40.277344 18.542969 37.011719 20.96875 C 35.777344 21.867188 35.832031 22.058594 37.667969 22.953125 C 40.785156 24.5 42.207031 27.078125 42.382812 31.570312 L 42.519531 34.496094 L 25.621094 34.496094 L 25.800781 31.722656 C 26.097656 27.078125 27.261719 24.828125 30.269531 23.160156 C 32.347656 22.003906 32.375 21.933594 31.074219 20.902344 C 25.648438 16.585938 30.417969 6.742188 36.394531 9.898438 Z M 27.808594 14.808594 C 27.628906 17.398438 27.957031 18.695312 29.324219 20.570312 L 30.308594 21.878906 L 29.503906 22.320312 C 27.191406 23.5625 25.199219 26.691406 24.925781 29.53125 C 24.773438 31.144531 24.71875 31.199219 23.898438 31.199219 L 23.050781 31.199219 L 23.144531 28.675781 C 23.269531 25.644531 24.128906 24.058594 26.277344 22.886719 C 27.878906 22.015625 27.957031 21.824219 26.988281 21.164062 C 26.097656 20.570312 25.144531 18.53125 25.144531 17.246094 C 25.144531 15.660156 26.949219 12.601562 27.890625 12.601562 C 27.933594 12.601562 27.902344 13.59375 27.808594 14.808594 Z M 42.082031 14.378906 C 43.394531 16.40625 43.191406 19.082031 41.550781 20.777344 C 40.496094 21.867188 40.496094 22.085938 41.660156 22.679688 C 43.980469 23.890625 45.074219 25.808594 45.28125 29.035156 L 45.402344 31.242188 L 44.433594 31.144531 C 43.519531 31.046875 43.476562 30.992188 43.367188 29.695312 C 43.160156 26.953125 40.988281 23.421875 38.839844 22.363281 L 37.84375 21.878906 L 38.839844 20.542969 C 40.140625 18.75 40.535156 17.164062 40.304688 14.585938 L 40.128906 12.519531 L 40.785156 12.960938 C 41.152344 13.207031 41.726562 13.84375 42.082031 14.378906 Z M 42.082031 14.378906 "/>
<path style=" stroke:none;fill-rule:nonzero;fill:rgb(21.176471%,6.666667%,93.333334%);fill-opacity:1;" d="M 33.589844 23.699219 C 33.496094 24.03125 33.277344 24.304688 33.085938 24.304688 C 32.457031 24.304688 31.472656 25.503906 31.472656 26.265625 C 31.472656 27.296875 32.375 27.988281 34.152344 28.34375 C 35.21875 28.578125 35.699219 28.8125 35.753906 29.1875 C 35.996094 30.496094 34.277344 31.035156 32.648438 30.164062 C 31.910156 29.765625 31.785156 29.78125 31.445312 30.179688 C 31.019531 30.71875 31.402344 31.089844 32.675781 31.390625 C 33.113281 31.488281 33.511719 31.820312 33.589844 32.136719 C 33.753906 32.796875 34.660156 32.910156 34.660156 32.246094 C 34.660156 32.011719 35.097656 31.597656 35.667969 31.363281 C 36.902344 30.828125 37.394531 29.847656 36.996094 28.746094 C 36.707031 27.945312 36.136719 27.671875 33.699219 27.144531 C 31.621094 26.71875 32.636719 25.050781 34.808594 25.328125 C 35.628906 25.410156 36.378906 25.410156 36.488281 25.296875 C 36.792969 24.996094 36.082031 24.304688 35.464844 24.304688 C 35.136719 24.304688 34.824219 24.042969 34.738281 23.699219 C 34.660156 23.367188 34.398438 23.105469 34.167969 23.105469 C 33.933594 23.105469 33.675781 23.367188 33.589844 23.699219 Z M 33.589844 23.699219 "/>
<path style=" stroke:none;fill-rule:nonzero;fill:rgb(21.176471%,6.666667%,93.333334%);fill-opacity:1;" d="M 44.078125 36.824219 C 43.683594 37.527344 44.121094 44.847656 44.570312 44.945312 C 44.980469 45.027344 45.050781 44.558594 45.050781 40.808594 C 45.050781 36.796875 44.777344 35.625 44.078125 36.824219 Z M 44.078125 36.824219 "/>
<path style=" stroke:none;fill-rule:nonzero;fill:rgb(21.176471%,6.666667%,93.333334%);fill-opacity:1;" d="M 50.175781 36.769531 C 50.09375 36.851562 50.09375 37.527344 50.160156 38.257812 C 50.3125 39.527344 49.972656 40.0625 49.519531 39.304688 C 49.191406 38.742188 47.753906 38.988281 47.113281 39.707031 C 45.074219 41.953125 46.824219 45.800781 49.4375 44.78125 C 49.875 44.601562 50.246094 44.558594 50.246094 44.722656 C 50.246094 44.875 50.433594 45 50.667969 45 C 51.035156 45 51.105469 44.339844 51.105469 40.796875 C 51.105469 36.742188 50.925781 35.984375 50.175781 36.769531 Z M 49.792969 40.5625 C 51.050781 42.4375 49.285156 45.164062 47.796875 43.636719 C 47.550781 43.359375 47.359375 42.640625 47.359375 41.996094 C 47.359375 40.0625 48.847656 39.183594 49.792969 40.5625 Z M 49.792969 40.5625 "/>
<path style=" stroke:none;fill-rule:nonzero;fill:rgb(21.176471%,6.666667%,93.333334%);fill-opacity:1;" d="M 41.410156 37.335938 C 41.207031 37.871094 41.496094 38.394531 42 38.394531 C 42.535156 38.394531 42.765625 37.652344 42.355469 37.222656 C 41.933594 36.78125 41.589844 36.8125 41.410156 37.335938 Z M 41.410156 37.335938 "/>
<path style=" stroke:none;fill-rule:nonzero;fill:rgb(21.176471%,6.666667%,93.333334%);fill-opacity:1;" d="M 7.902344 37.679688 C 3.910156 39.734375 6.945312 46.488281 11.101562 44.820312 C 12.042969 44.449219 11.621094 43.757812 10.488281 43.800781 C 8.707031 43.882812 8.421875 43.828125 7.808594 43.195312 C 6.179688 41.511719 7.519531 38.3125 9.816406 38.421875 C 11.511719 38.535156 12.167969 38.1875 11.402344 37.609375 C 10.691406 37.058594 9.035156 37.113281 7.902344 37.679688 Z M 7.902344 37.679688 "/>
<path style=" stroke:none;fill-rule:nonzero;fill:rgb(21.176471%,6.666667%,93.333334%);fill-opacity:1;" d="M 28.875 41.097656 L 28.875 45 L 30.777344 45 C 33.621094 45 35.082031 43.054688 33.480469 41.386719 C 32.964844 40.851562 32.949219 40.726562 33.347656 40.328125 C 34.78125 38.824219 33.292969 37.195312 30.488281 37.195312 L 28.875 37.195312 Z M 32.675781 38.742188 C 33.25 39.707031 32.363281 40.5625 30.941406 40.4375 C 29.914062 40.355469 29.652344 39.707031 30.011719 38.132812 C 30.078125 37.84375 32.457031 38.394531 32.675781 38.742188 Z M 32.457031 41.582031 C 33.25 41.898438 33.058594 43.46875 32.183594 43.800781 C 30.734375 44.378906 30.035156 44.1875 30.035156 43.234375 C 30.035156 42.753906 29.96875 42.132812 29.859375 41.882812 C 29.683594 41.375 31.445312 41.179688 32.457031 41.582031 Z M 32.457031 41.582031 "/>
<path style=" stroke:none;fill-rule:nonzero;fill:rgb(21.176471%,6.666667%,93.333334%);fill-opacity:1;" d="M 12.714844 42.007812 C 12.714844 44.738281 12.769531 45.027344 13.222656 44.945312 C 13.644531 44.847656 13.714844 44.546875 13.644531 43.234375 C 13.550781 41.402344 14.054688 40.296875 15.082031 40.132812 C 15.886719 40.023438 16.1875 39.003906 15.410156 39.003906 C 15.105469 39.003906 14.574219 39.210938 14.21875 39.457031 C 13.644531 39.886719 13.589844 39.886719 13.589844 39.457031 C 13.589844 39.210938 13.398438 39.003906 13.152344 39.003906 C 12.796875 39.003906 12.714844 39.539062 12.714844 42.007812 Z M 12.714844 42.007812 "/>
<path style=" stroke:none;fill-rule:nonzero;fill:rgb(21.176471%,6.666667%,93.333334%);fill-opacity:1;" d="M 16.761719 41.996094 C 16.761719 44.78125 16.800781 45 17.324219 45 C 17.828125 45 17.894531 44.765625 17.964844 42.710938 C 18.128906 38.617188 20.003906 38.644531 20.167969 42.726562 C 20.234375 44.710938 20.300781 45.027344 20.738281 44.945312 C 21.152344 44.847656 21.21875 44.546875 21.136719 43.109375 C 21.027344 41.207031 21.574219 39.898438 22.476562 39.898438 C 23.40625 39.898438 23.679688 40.546875 23.679688 42.820312 C 23.679688 44.78125 23.746094 45.027344 24.183594 44.945312 C 24.871094 44.808594 24.761719 40.339844 24.050781 39.527344 C 23.515625 38.890625 22.269531 38.835938 21.519531 39.417969 C 21.042969 39.773438 20.878906 39.761719 20.277344 39.359375 C 19.699219 38.976562 19.425781 38.960938 18.675781 39.25 C 18.089844 39.484375 17.746094 39.5 17.664062 39.304688 C 17.226562 37.886719 16.761719 39.238281 16.761719 41.996094 Z M 16.761719 41.996094 "/>
<path style=" stroke:none;fill-rule:nonzero;fill:rgb(21.176471%,6.666667%,93.333334%);fill-opacity:1;" d="M 35.230469 41.386719 C 35.230469 44.53125 36.542969 45.921875 38.390625 44.710938 C 38.664062 44.53125 38.949219 44.546875 39.199219 44.765625 C 39.757812 45.261719 39.8125 45.070312 39.878906 41.996094 C 39.921875 39.566406 39.867188 39.140625 39.457031 39.058594 C 39.058594 38.976562 38.980469 39.25 38.980469 40.863281 C 38.980469 42.933594 38.457031 44.105469 37.542969 44.105469 C 36.464844 44.105469 36.050781 43.261719 36.148438 41.140625 C 36.230469 39.457031 36.175781 39.15625 35.738281 39.058594 C 35.285156 38.976562 35.230469 39.222656 35.230469 41.386719 Z M 35.230469 41.386719 "/>
<path style=" stroke:none;fill-rule:nonzero;fill:rgb(21.176471%,6.666667%,93.333334%);fill-opacity:1;" d="M 41.5625 39.15625 C 41.371094 41.636719 41.589844 44.863281 41.988281 44.945312 C 42.382812 45.027344 42.449219 44.628906 42.449219 42.007812 C 42.449219 39.539062 42.371094 39.003906 42.011719 39.003906 C 41.78125 39.003906 41.574219 39.058594 41.5625 39.15625 Z M 41.5625 39.15625 "/>
<path style=" stroke:none;fill-rule:nonzero;fill:rgb(21.176471%,6.666667%,93.333334%);fill-opacity:1;" d="M 53.320312 39.789062 C 52.554688 40.589844 52.28125 42.40625 52.71875 43.636719 C 53.128906 44.722656 55.425781 45.34375 56.613281 44.683594 C 57.519531 44.1875 56.957031 43.746094 55.714844 43.953125 C 54.824219 44.117188 54.496094 44.019531 54.019531 43.523438 C 53.058594 42.519531 53.277344 42.296875 55.289062 42.296875 L 57.160156 42.296875 L 57.160156 41.386719 C 57.160156 39.265625 54.753906 38.285156 53.320312 39.789062 Z M 55.589844 40.121094 C 56.601562 40.851562 56.285156 41.402344 54.839844 41.402344 C 53.277344 41.402344 53.167969 41.277344 53.894531 40.449219 C 54.402344 39.886719 55.070312 39.746094 55.589844 40.121094 Z M 55.589844 40.121094 "/>
<path style=" stroke:none;fill-rule:nonzero;fill:rgb(21.176471%,6.666667%,93.333334%);fill-opacity:1;" d="M 58.324219 41.996094 C 58.324219 44.808594 58.363281 45 58.898438 45 C 59.417969 45 59.472656 44.808594 59.472656 42.933594 C 59.472656 40.738281 59.691406 40.339844 60.921875 40.160156 C 61.894531 40.023438 62.082031 39.003906 61.152344 39.003906 C 60.769531 39.003906 60.183594 39.210938 59.828125 39.457031 C 59.238281 39.886719 59.183594 39.886719 59.183594 39.457031 C 59.183594 39.210938 58.996094 39.003906 58.746094 39.003906 C 58.394531 39.003906 58.324219 39.539062 58.324219 41.996094 Z M 58.324219 41.996094 "/>
</g>
</svg>
