<?xml version="1.0" encoding="UTF-8"?>
<svg xmlns="http://www.w3.org/2000/svg" xmlns:xlink="http://www.w3.org/1999/xlink" width="20px" height="17px" viewBox="0 0 19 17" version="1.1">
<g id="surface1">
<path style=" stroke:none;fill-rule:nonzero;fill:rgb(21.176471%,6.666667%,93.333334%);fill-opacity:1;" d="M 8.511719 2.476562 C 8.3125 2.574219 8.039062 2.800781 7.90625 2.980469 C 7.75 3.175781 7.558594 3.316406 7.402344 3.347656 C 6.484375 3.535156 6.085938 5.050781 6.726562 5.917969 L 6.917969 6.183594 L 6.617188 6.382812 C 6.058594 6.757812 5.820312 7.289062 5.785156 8.253906 L 5.753906 9.09375 L 6.597656 9.09375 L 6.597656 10.117188 L 9.257812 10.09375 L 11.917969 10.074219 L 11.941406 9.585938 L 11.964844 9.105469 L 12.351562 9.078125 L 12.742188 9.050781 L 12.722656 8.339844 C 12.703125 7.324219 12.125 6.203125 11.621094 6.203125 C 11.578125 6.203125 11.667969 6.03125 11.8125 5.8125 C 12.402344 4.953125 11.960938 3.53125 11.046875 3.34375 C 10.914062 3.316406 10.707031 3.15625 10.5625 2.976562 C 10.0625 2.328125 9.203125 2.121094 8.511719 2.476562 Z M 9.898438 2.804688 C 10.902344 3.335938 11.007812 5.253906 10.074219 5.941406 C 9.722656 6.195312 9.738281 6.25 10.261719 6.503906 C 11.152344 6.941406 11.558594 7.671875 11.609375 8.945312 L 11.648438 9.773438 L 6.820312 9.773438 L 6.871094 8.988281 C 6.957031 7.671875 7.289062 7.035156 8.148438 6.5625 C 8.742188 6.234375 8.75 6.214844 8.378906 5.921875 C 6.828125 4.699219 8.191406 1.910156 9.898438 2.804688 Z M 7.445312 4.195312 C 7.394531 4.929688 7.488281 5.296875 7.878906 5.828125 L 8.160156 6.199219 L 7.929688 6.324219 C 7.269531 6.675781 6.699219 7.5625 6.621094 8.367188 C 6.578125 8.824219 6.5625 8.839844 6.328125 8.839844 L 6.085938 8.839844 L 6.113281 8.125 C 6.148438 7.265625 6.394531 6.816406 7.007812 6.484375 C 7.464844 6.238281 7.488281 6.183594 7.210938 5.996094 C 6.957031 5.828125 6.683594 5.25 6.683594 4.886719 C 6.683594 4.4375 7.199219 3.570312 7.46875 3.570312 C 7.480469 3.570312 7.472656 3.851562 7.445312 4.195312 Z M 11.523438 4.074219 C 11.898438 4.648438 11.839844 5.40625 11.371094 5.886719 C 11.070312 6.195312 11.070312 6.257812 11.402344 6.425781 C 12.066406 6.769531 12.378906 7.3125 12.4375 8.226562 L 12.472656 8.851562 L 12.195312 8.824219 C 11.933594 8.796875 11.921875 8.78125 11.890625 8.414062 C 11.832031 7.636719 11.210938 6.636719 10.597656 6.335938 L 10.3125 6.199219 L 10.597656 5.820312 C 10.96875 5.3125 11.082031 4.863281 11.015625 4.132812 L 10.964844 3.546875 L 11.152344 3.671875 C 11.257812 3.742188 11.421875 3.921875 11.523438 4.074219 Z M 11.523438 4.074219 "/>
<path style=" stroke:none;fill-rule:nonzero;fill:rgb(21.176471%,6.666667%,93.333334%);fill-opacity:1;" d="M 9.097656 6.714844 C 9.070312 6.808594 9.007812 6.886719 8.953125 6.886719 C 8.773438 6.886719 8.492188 7.226562 8.492188 7.441406 C 8.492188 7.734375 8.75 7.929688 9.257812 8.03125 C 9.5625 8.097656 9.699219 8.164062 9.714844 8.269531 C 9.785156 8.640625 9.292969 8.792969 8.828125 8.546875 C 8.617188 8.433594 8.582031 8.4375 8.484375 8.550781 C 8.363281 8.703125 8.472656 8.808594 8.835938 8.894531 C 8.960938 8.921875 9.074219 9.015625 9.097656 9.105469 C 9.144531 9.292969 9.402344 9.324219 9.402344 9.136719 C 9.402344 9.070312 9.527344 8.953125 9.691406 8.886719 C 10.042969 8.734375 10.183594 8.457031 10.070312 8.144531 C 9.988281 7.917969 9.824219 7.839844 9.128906 7.691406 C 8.535156 7.570312 8.824219 7.097656 9.445312 7.175781 C 9.679688 7.199219 9.894531 7.199219 9.925781 7.167969 C 10.011719 7.082031 9.808594 6.886719 9.632812 6.886719 C 9.539062 6.886719 9.449219 6.8125 9.425781 6.714844 C 9.402344 6.621094 9.328125 6.546875 9.261719 6.546875 C 9.195312 6.546875 9.121094 6.621094 9.097656 6.714844 Z M 9.097656 6.714844 "/>
<path style=" stroke:none;fill-rule:nonzero;fill:rgb(21.176471%,6.666667%,93.333334%);fill-opacity:1;" d="M 12.09375 10.433594 C 11.980469 10.632812 12.105469 12.707031 12.234375 12.734375 C 12.351562 12.757812 12.371094 12.625 12.371094 11.5625 C 12.371094 10.425781 12.292969 10.09375 12.09375 10.433594 Z M 12.09375 10.433594 "/>
<path style=" stroke:none;fill-rule:nonzero;fill:rgb(21.176471%,6.666667%,93.333334%);fill-opacity:1;" d="M 13.835938 10.417969 C 13.8125 10.441406 13.8125 10.632812 13.832031 10.839844 C 13.875 11.199219 13.777344 11.351562 13.648438 11.136719 C 13.554688 10.976562 13.144531 11.046875 12.960938 11.25 C 12.378906 11.886719 12.878906 12.976562 13.625 12.6875 C 13.75 12.636719 13.855469 12.625 13.855469 12.671875 C 13.855469 12.714844 13.910156 12.75 13.976562 12.75 C 14.082031 12.75 14.101562 12.5625 14.101562 11.558594 C 14.101562 10.410156 14.050781 10.195312 13.835938 10.417969 Z M 13.726562 11.492188 C 14.085938 12.023438 13.582031 12.796875 13.15625 12.363281 C 13.085938 12.285156 13.03125 12.082031 13.03125 11.898438 C 13.03125 11.351562 13.457031 11.101562 13.726562 11.492188 Z M 13.726562 11.492188 "/>
<path style=" stroke:none;fill-rule:nonzero;fill:rgb(21.176471%,6.666667%,93.333334%);fill-opacity:1;" d="M 11.332031 10.578125 C 11.273438 10.730469 11.355469 10.878906 11.5 10.878906 C 11.652344 10.878906 11.71875 10.667969 11.601562 10.546875 C 11.480469 10.421875 11.382812 10.429688 11.332031 10.578125 Z M 11.332031 10.578125 "/>
<path style=" stroke:none;fill-rule:nonzero;fill:rgb(21.176471%,6.666667%,93.333334%);fill-opacity:1;" d="M 1.757812 10.675781 C 0.617188 11.257812 1.484375 13.171875 2.671875 12.699219 C 2.941406 12.59375 2.820312 12.398438 2.496094 12.410156 C 1.988281 12.433594 1.90625 12.417969 1.730469 12.238281 C 1.265625 11.761719 1.648438 10.855469 2.304688 10.886719 C 2.789062 10.917969 2.976562 10.820312 2.757812 10.65625 C 2.554688 10.5 2.082031 10.515625 1.757812 10.675781 Z M 1.757812 10.675781 "/>
<path style=" stroke:none;fill-rule:nonzero;fill:rgb(21.176471%,6.666667%,93.333334%);fill-opacity:1;" d="M 7.75 11.644531 L 7.75 12.75 L 8.292969 12.75 C 9.105469 12.75 9.523438 12.199219 9.066406 11.726562 C 8.917969 11.574219 8.914062 11.539062 9.027344 11.425781 C 9.4375 11 9.011719 10.539062 8.210938 10.539062 L 7.75 10.539062 Z M 8.835938 10.976562 C 9 11.25 8.746094 11.492188 8.339844 11.457031 C 8.046875 11.433594 7.972656 11.25 8.074219 10.804688 C 8.09375 10.722656 8.773438 10.878906 8.835938 10.976562 Z M 8.773438 11.78125 C 9 11.871094 8.945312 12.316406 8.695312 12.410156 C 8.28125 12.574219 8.082031 12.519531 8.082031 12.25 C 8.082031 12.113281 8.0625 11.9375 8.03125 11.867188 C 7.980469 11.722656 8.484375 11.667969 8.773438 11.78125 Z M 8.773438 11.78125 "/>
<path style=" stroke:none;fill-rule:nonzero;fill:rgb(21.176471%,6.666667%,93.333334%);fill-opacity:1;" d="M 3.132812 11.902344 C 3.132812 12.675781 3.148438 12.757812 3.277344 12.734375 C 3.398438 12.707031 3.417969 12.621094 3.398438 12.25 C 3.371094 11.730469 3.515625 11.417969 3.808594 11.371094 C 4.039062 11.339844 4.125 11.050781 3.902344 11.050781 C 3.816406 11.050781 3.664062 11.109375 3.5625 11.179688 C 3.398438 11.300781 3.382812 11.300781 3.382812 11.179688 C 3.382812 11.109375 3.328125 11.050781 3.257812 11.050781 C 3.15625 11.050781 3.132812 11.203125 3.132812 11.902344 Z M 3.132812 11.902344 "/>
<path style=" stroke:none;fill-rule:nonzero;fill:rgb(21.176471%,6.666667%,93.333334%);fill-opacity:1;" d="M 4.289062 11.898438 C 4.289062 12.6875 4.300781 12.75 4.449219 12.75 C 4.59375 12.75 4.613281 12.683594 4.632812 12.101562 C 4.679688 10.941406 5.214844 10.949219 5.261719 12.105469 C 5.28125 12.667969 5.300781 12.757812 5.425781 12.734375 C 5.542969 12.707031 5.5625 12.621094 5.539062 12.214844 C 5.507812 11.675781 5.664062 11.304688 5.921875 11.304688 C 6.1875 11.304688 6.265625 11.488281 6.265625 12.132812 C 6.265625 12.6875 6.285156 12.757812 6.410156 12.734375 C 6.605469 12.695312 6.574219 11.429688 6.371094 11.199219 C 6.21875 11.019531 5.863281 11.003906 5.648438 11.167969 C 5.511719 11.269531 5.464844 11.265625 5.292969 11.152344 C 5.128906 11.042969 5.050781 11.039062 4.835938 11.121094 C 4.667969 11.1875 4.570312 11.191406 4.546875 11.136719 C 4.421875 10.734375 4.289062 11.117188 4.289062 11.898438 Z M 4.289062 11.898438 "/>
<path style=" stroke:none;fill-rule:nonzero;fill:rgb(21.176471%,6.666667%,93.333334%);fill-opacity:1;" d="M 9.566406 11.726562 C 9.566406 12.617188 9.941406 13.011719 10.46875 12.667969 C 10.546875 12.617188 10.628906 12.621094 10.699219 12.683594 C 10.859375 12.824219 10.875 12.769531 10.894531 11.898438 C 10.90625 11.210938 10.890625 11.089844 10.773438 11.066406 C 10.660156 11.042969 10.636719 11.121094 10.636719 11.578125 C 10.636719 12.164062 10.488281 12.496094 10.226562 12.496094 C 9.917969 12.496094 9.800781 12.257812 9.828125 11.65625 C 9.851562 11.179688 9.835938 11.09375 9.710938 11.066406 C 9.582031 11.042969 9.566406 11.113281 9.566406 11.726562 Z M 9.566406 11.726562 "/>
<path style=" stroke:none;fill-rule:nonzero;fill:rgb(21.176471%,6.666667%,93.333334%);fill-opacity:1;" d="M 11.375 11.09375 C 11.320312 11.796875 11.382812 12.710938 11.496094 12.734375 C 11.609375 12.757812 11.628906 12.644531 11.628906 11.902344 C 11.628906 11.203125 11.605469 11.050781 11.503906 11.050781 C 11.4375 11.050781 11.378906 11.066406 11.375 11.09375 Z M 11.375 11.09375 "/>
<path style=" stroke:none;fill-rule:nonzero;fill:rgb(21.176471%,6.666667%,93.333334%);fill-opacity:1;" d="M 14.734375 11.273438 C 14.515625 11.5 14.4375 12.015625 14.5625 12.363281 C 14.679688 12.671875 15.335938 12.847656 15.675781 12.660156 C 15.933594 12.519531 15.773438 12.394531 15.417969 12.453125 C 15.164062 12.5 15.070312 12.472656 14.933594 12.332031 C 14.660156 12.046875 14.722656 11.984375 15.296875 11.984375 L 15.832031 11.984375 L 15.832031 11.726562 C 15.832031 11.125 15.144531 10.847656 14.734375 11.273438 Z M 15.382812 11.367188 C 15.671875 11.574219 15.582031 11.730469 15.167969 11.730469 C 14.722656 11.730469 14.691406 11.695312 14.898438 11.460938 C 15.042969 11.300781 15.234375 11.261719 15.382812 11.367188 Z M 15.382812 11.367188 "/>
<path style=" stroke:none;fill-rule:nonzero;fill:rgb(21.176471%,6.666667%,93.333334%);fill-opacity:1;" d="M 16.164062 11.898438 C 16.164062 12.695312 16.175781 12.75 16.328125 12.75 C 16.476562 12.75 16.492188 12.695312 16.492188 12.164062 C 16.492188 11.542969 16.554688 11.429688 16.90625 11.378906 C 17.183594 11.339844 17.238281 11.050781 16.972656 11.050781 C 16.863281 11.050781 16.695312 11.109375 16.59375 11.179688 C 16.425781 11.300781 16.410156 11.300781 16.410156 11.179688 C 16.410156 11.109375 16.355469 11.050781 16.285156 11.050781 C 16.183594 11.050781 16.164062 11.203125 16.164062 11.898438 Z M 16.164062 11.898438 "/>
</g>
</svg>
