<svg xmlns="http://www.w3.org/2000/svg" xmlns:xlink="http://www.w3.org/1999/xlink" version="1.1" width="1000" height="1000" viewBox="0 0 1000 1000" xml:space="preserve">
<desc>Created with Fabric.js 3.5.0</desc>
<defs>
</defs>
<rect x="0" y="0" width="100%" height="100%" fill="#ffffff"/>
<g transform="matrix(0.3261 0 0 0.3261 329.1314 170.5865)" id="488056">
<g style="" vector-effect="non-scaling-stroke">
		<g transform="matrix(0.0667 0 0 -0.0667 -3.8051 -35.8622)">
<path style="stroke: none; stroke-width: 1; stroke-dasharray: none; stroke-linecap: butt; stroke-dashoffset: 0; stroke-linejoin: miter; stroke-miterlimit: 4; is-custom-font: none; font-file-url: none; fill: rgb(54,17,238); fill-rule: nonzero; opacity: 1;" transform=" translate(-2242.5, -2538.3943)" d="M 2064 3417 c -48 -23 -114 -76 -147 -118 c -37 -46 -84 -79 -122 -87 c -222 -44 -319 -400 -164 -604 l 47 -63 l -73 -47 c -136 -88 -193 -213 -202 -440 l -8 -198 l 103 0 l 102 0 l 0 -120 l 0 -121 l 645 6 l 645 5 l 6 114 l 6 114 l 94 6 l 94 6 l -4 168 c -5 239 -145 502 -268 502 c -10 0 12 41 47 92 c 143 203 36 537 -186 581 c -32 7 -82 44 -117 87 c -122 152 -330 201 -498 117 z m 337 -77 c 243 -125 269 -576 42 -738 c -85 -60 -81 -73 46 -132 c 216 -103 314 -275 327 -575 l 9 -195 l -586 0 l -585 0 l 12 185 c 21 310 102 460 310 571 c 144 77 146 82 56 151 c -376 287 -45 944 369 733 z m -595 -327 c -13 -173 10 -259 105 -384 l 68 -88 l -56 -29 c -160 -83 -298 -291 -317 -481 c -11 -107 -14 -111 -71 -111 l -59 0 l 7 168 c 8 202 68 308 217 386 c 110 58 116 71 49 115 c -62 40 -128 176 -128 261 c 0 106 125 310 190 310 c 3 0 1 -66 -5 -147 z m 989 28 c 91 -135 76 -313 -37 -426 c -73 -73 -73 -87 7 -127 c 161 -81 237 -209 251 -424 l 9 -147 l -67 7 c -64 6 -67 10 -74 96 c -14 183 -165 418 -314 489 l -69 32 l 69 90 c 90 119 118 225 102 397 l -13 137 l 46 -29 c 25 -17 65 -59 90 -95 z" stroke-linecap="round"/>
</g>
		<g transform="matrix(0.0667 0 0 -0.0667 -3.3988 -9.3356)">
<path style="stroke: none; stroke-width: 1; stroke-dasharray: none; stroke-linecap: butt; stroke-dashoffset: 0; stroke-linejoin: miter; stroke-miterlimit: 4; is-custom-font: none; font-file-url: none; fill: rgb(54,17,238); fill-rule: nonzero; opacity: 1;" transform=" translate(-2248.916, -2140.1945)" d="M 2206 2420 c -6 -22 -21 -40 -35 -40 c -43 0 -111 -80 -111 -131 c 0 -69 62 -115 185 -139 c 74 -15 107 -31 111 -56 c 17 -87 -102 -123 -215 -65 c -51 27 -60 26 -83 -1 c -30 -36 -3 -61 85 -81 c 30 -6 58 -28 63 -49 c 12 -45 74 -52 74 -8 c 0 16 31 43 70 59 c 86 36 120 101 92 175 c -20 53 -59 71 -228 106 c -144 29 -74 140 77 122 c 57 -6 109 -6 116 1 c 21 21 -28 67 -71 67 c -23 0 -44 17 -50 40 c -6 22 -24 40 -40 40 c -16 0 -34 -18 -40 -40 z" stroke-linecap="round"/>
</g>
		<g transform="matrix(0.0667 0 0 -0.0667 44.0843 47.402)">
<path style="stroke: none; stroke-width: 1; stroke-dasharray: none; stroke-linecap: butt; stroke-dashoffset: 0; stroke-linejoin: miter; stroke-miterlimit: 4; is-custom-font: none; font-file-url: none; fill: rgb(54,17,238); fill-rule: nonzero; opacity: 1;" transform=" translate(-2961.246, -1289.1129)" d="M 2933 1545 c -27 -47 3 -535 34 -541 c 29 -6 33 25 33 275 c 0 268 -19 346 -67 266 z" stroke-linecap="round"/>
</g>
		<g transform="matrix(0.0667 0 0 -0.0667 63.3847 47.7676)">
<path style="stroke: none; stroke-width: 1; stroke-dasharray: none; stroke-linecap: butt; stroke-dashoffset: 0; stroke-linejoin: miter; stroke-miterlimit: 4; is-custom-font: none; font-file-url: none; fill: rgb(54,17,238); fill-rule: nonzero; opacity: 1;" transform=" translate(-3250.6857, -1283.6266)" d="M 3356 1549 c -6 -6 -6 -51 -1 -100 c 10 -84 -14 -120 -45 -69 c -23 37 -122 21 -167 -27 c -141 -150 -20 -406 161 -338 c 31 12 56 14 56 3 c 0 -10 14 -18 30 -18 c 25 0 30 44 30 280 c 0 271 -12 321 -64 269 z m -27 -253 c 87 -125 -35 -307 -138 -205 c -17 18 -31 66 -31 109 c 0 129 104 188 169 96 z" stroke-linecap="round"/>
</g>
		<g transform="matrix(0.0667 0 0 -0.0667 32.3918 34.0352)">
<path style="stroke: none; stroke-width: 1; stroke-dasharray: none; stroke-linecap: butt; stroke-dashoffset: 0; stroke-linejoin: miter; stroke-miterlimit: 4; is-custom-font: none; font-file-url: none; fill: rgb(54,17,238); fill-rule: nonzero; opacity: 1;" transform=" translate(-2785.8553, -1489.4959)" d="M 2748 1511 c -14 -36 6 -71 41 -71 c 37 0 53 50 25 78 c -30 30 -53 28 -66 -7 z" stroke-linecap="round"/>
</g>
		<g transform="matrix(0.0667 0 0 -0.0667 -120.4026 49.5788)">
<path style="stroke: none; stroke-width: 1; stroke-dasharray: none; stroke-linecap: butt; stroke-dashoffset: 0; stroke-linejoin: miter; stroke-miterlimit: 4; is-custom-font: none; font-file-url: none; fill: rgb(54,17,238); fill-rule: nonzero; opacity: 1;" transform=" translate(-493.862, -1256.4483)" d="M 426 1488 c -276 -137 -66 -587 222 -476 c 65 25 36 71 -43 68 c -123 -6 -143 -2 -185 40 c -113 113 -20 326 139 318 c 117 -7 163 16 110 55 c -49 36 -164 33 -243 -5 z" stroke-linecap="round"/>
</g>
		<g transform="matrix(0.0667 0 0 -0.0667 -15.836 49.3421)">
<path style="stroke: none; stroke-width: 1; stroke-dasharray: none; stroke-linecap: butt; stroke-dashoffset: 0; stroke-linejoin: miter; stroke-miterlimit: 4; is-custom-font: none; font-file-url: none; fill: rgb(54,17,238); fill-rule: nonzero; opacity: 1;" transform=" translate(-2062.3683, -1260)" d="M 1880 1260 l 0 -260 l 131 0 c 197 0 299 130 188 241 c -36 36 -37 44 -10 71 c 100 100 -3 208 -198 208 l -111 0 l 0 -260 z m 263 157 c 40 -64 -22 -121 -120 -113 c -71 6 -89 49 -65 154 c 5 19 170 -18 185 -41 z m -15 -189 c 55 -21 41 -126 -19 -148 c -101 -39 -149 -26 -149 38 c 0 32 -5 73 -12 90 c -13 34 110 47 180 20 z" stroke-linecap="round"/>
</g>
		<g transform="matrix(0.0667 0 0 -0.0667 -95.4056 53.2372)">
<path style="stroke: none; stroke-width: 1; stroke-dasharray: none; stroke-linecap: butt; stroke-dashoffset: 0; stroke-linejoin: miter; stroke-miterlimit: 4; is-custom-font: none; font-file-url: none; fill: rgb(54,17,238); fill-rule: nonzero; opacity: 1;" transform=" translate(-868.8609, -1201.5426)" d="M 760 1199 c 0 -182 4 -201 35 -195 c 29 6 34 26 29 114 c -6 122 29 195 100 206 c 56 8 76 76 22 76 c -20 0 -57 -14 -82 -31 c -40 -28 -44 -28 -44 0 c 0 17 -13 31 -30 31 c -25 0 -30 -36 -30 -201 z" stroke-linecap="round"/>
</g>
		<g transform="matrix(0.0667 0 0 -0.0667 -65.7803 52.7511)">
<path style="stroke: none; stroke-width: 1; stroke-dasharray: none; stroke-linecap: butt; stroke-dashoffset: 0; stroke-linejoin: miter; stroke-miterlimit: 4; is-custom-font: none; font-file-url: none; fill: rgb(54,17,238); fill-rule: nonzero; opacity: 1;" transform=" translate(-1313.1575, -1208.8387)" d="M 1040 1200 c 0 -185 3 -200 39 -200 c 35 0 40 16 45 153 c 11 273 141 271 152 -1 c 5 -133 10 -154 40 -148 c 28 6 33 26 27 122 c -7 127 31 214 93 214 c 65 0 84 -43 84 -195 c 0 -130 4 -147 35 -141 c 47 9 39 307 -10 361 c -37 42 -123 46 -175 7 c -33 -24 -45 -23 -86 4 c -40 26 -59 27 -111 7 c -41 -15 -65 -16 -70 -3 c -31 94 -63 4 -63 -180 z" stroke-linecap="round"/>
</g>
		<g transform="matrix(0.0667 0 0 -0.0667 12.1001 53.7746)">
<path style="stroke: none; stroke-width: 1; stroke-dasharray: none; stroke-linecap: butt; stroke-dashoffset: 0; stroke-linejoin: miter; stroke-miterlimit: 4; is-custom-font: none; font-file-url: none; fill: rgb(54,17,238); fill-rule: nonzero; opacity: 1;" transform=" translate(-2481.4204, -1193.4827)" d="M 2320 1241 c 0 -210 91 -303 219 -222 c 19 12 39 11 56 -3 c 39 -33 42 -21 47 184 c 3 162 -1 191 -29 196 c -28 6 -33 -13 -33 -120 c 0 -138 -36 -216 -100 -216 c -75 0 -103 56 -96 197 c 5 112 1 133 -29 139 c -31 6 -35 -11 -35 -155 z" stroke-linecap="round"/>
</g>
		<g transform="matrix(0.0667 0 0 -0.0667 32.462 53.2316)">
<path style="stroke: none; stroke-width: 1; stroke-dasharray: none; stroke-linecap: butt; stroke-dashoffset: 0; stroke-linejoin: miter; stroke-miterlimit: 4; is-custom-font: none; font-file-url: none; fill: rgb(54,17,238); fill-rule: nonzero; opacity: 1;" transform=" translate(-2786.9135, -1201.626)" d="M 2759 1390 c -14 -166 2 -381 29 -386 c 28 -6 32 21 32 195 c 0 165 -5 201 -30 201 c -16 0 -30 -4 -31 -10 z" stroke-linecap="round"/>
</g>
		<g transform="matrix(0.0667 0 0 -0.0667 91.9077 53.3864)">
<path style="stroke: none; stroke-width: 1; stroke-dasharray: none; stroke-linecap: butt; stroke-dashoffset: 0; stroke-linejoin: miter; stroke-miterlimit: 4; is-custom-font: none; font-file-url: none; fill: rgb(54,17,238); fill-rule: nonzero; opacity: 1;" transform=" translate(-3678.5344, -1199.303)" d="M 3573 1347 c -53 -53 -72 -174 -41 -256 c 28 -73 187 -114 270 -70 c 62 33 23 63 -63 49 c -61 -11 -84 -5 -117 28 c -67 67 -51 82 88 82 l 130 0 l 0 61 c 0 141 -167 207 -267 106 z m 158 -22 c 70 -48 48 -85 -52 -85 c -108 0 -116 8 -66 63 c 35 38 82 47 118 22 z" stroke-linecap="round"/>
</g>
		<g transform="matrix(0.0667 0 0 -0.0667 115.9418 53.3401)">
<path style="stroke: none; stroke-width: 1; stroke-dasharray: none; stroke-linecap: butt; stroke-dashoffset: 0; stroke-linejoin: miter; stroke-miterlimit: 4; is-custom-font: none; font-file-url: none; fill: rgb(54,17,238); fill-rule: nonzero; opacity: 1;" transform=" translate(-4039.0673, -1200)" d="M 3920 1200 c 0 -187 3 -200 40 -200 c 36 0 40 13 40 138 c 0 146 15 173 100 185 c 67 9 81 77 16 77 c -26 0 -67 -14 -92 -31 c -40 -28 -44 -28 -44 0 c 0 17 -13 31 -30 31 c -25 0 -30 -36 -30 -200 z" stroke-linecap="round"/>
</g>
</g>
</g>
</svg>